<svg id="svg" version="1.1" xmlns="http://www.w3.org/2000/svg" xmlns:xlink="http://www.w3.org/1999/xlink" width="400" height="400" viewBox="0, 0, 400,400"><g id="svgg"><path id="path0" d="M78.299 72.701 L 25.600 125.401 25.600 200.003 L 25.600 274.604 78.304 327.302 L 131.007 380.000 205.002 380.000 L 278.997 380.000 331.898 327.098 L 384.800 274.197 384.800 200.000 L 384.800 125.803 331.898 72.902 L 278.997 20.000 204.998 20.000 L 130.999 20.000 78.299 72.701 M330.899 74.299 L 383.200 126.599 383.200 199.999 L 383.200 273.399 330.901 325.699 L 278.601 378.000 204.802 378.000 L 131.003 378.000 78.902 325.898 L 26.800 273.797 26.800 200.000 L 26.800 126.203 78.902 74.102 L 131.003 22.000 204.801 22.000 L 278.599 22.000 330.899 74.299 M84.886 80.128 L 35.200 129.856 35.200 199.997 L 35.200 270.138 84.885 319.869 L 134.570 369.600 204.987 369.600 L 275.404 369.600 324.902 320.096 L 374.400 270.592 374.400 200.000 L 374.400 129.408 324.902 79.904 L 275.404 30.400 204.989 30.400 L 134.573 30.400 84.886 80.128 M323.702 81.104 L 372.800 130.208 372.800 200.000 L 372.800 269.792 323.702 318.896 L 274.604 368.000 204.998 368.000 L 135.392 368.000 86.096 318.693 L 36.800 269.386 36.800 200.000 L 36.800 130.614 86.096 81.307 L 135.392 32.000 204.998 32.000 L 274.604 32.000 323.702 81.104 M90.554 80.975 C 89.888 82.710,90.425 82.991,94.804 83.200 L 99.000 83.400 99.000 130.800 L 99.000 178.200 94.800 178.400 L 90.600 178.600 90.600 180.000 L 90.600 181.400 123.300 181.502 C 141.285 181.559,156.000 181.701,156.000 181.818 C 156.000 181.936,155.368 183.902,154.595 186.187 C 150.563 198.111,150.030 214.715,153.283 227.000 C 157.934 244.559,168.924 254.643,187.600 258.487 C 192.707 259.538,207.011 259.756,211.800 258.855 C 216.044 258.057,222.792 256.549,226.446 255.583 C 230.032 254.634,233.600 256.146,233.600 258.614 C 233.600 260.013,235.813 259.278,236.348 257.700 C 244.496 233.687,250.245 226.938,261.702 227.939 C 262.367 227.997,262.398 230.363,262.302 273.300 L 262.200 318.600 256.505 318.711 L 250.810 318.822 250.554 319.840 C 250.109 321.614,250.057 321.610,275.623 321.503 L 300.200 321.400 300.335 320.445 C 300.540 318.996,299.844 318.813,294.100 318.806 L 288.800 318.800 288.800 273.443 C 288.800 233.971,288.876 228.056,289.386 227.861 C 290.449 227.453,295.810 228.278,297.791 229.155 C 303.706 231.771,308.186 239.119,313.428 254.800 C 314.784 258.856,315.006 259.200,316.279 259.200 L 317.259 259.200 317.026 253.100 C 316.673 243.904,315.953 227.107,315.872 226.200 C 315.770 225.070,236.686 224.716,234.593 225.836 C 233.639 226.346,232.816 227.653,230.675 232.050 C 220.473 253.003,208.274 261.096,195.736 255.229 C 188.341 251.768,183.604 242.875,181.126 227.800 C 180.271 222.599,180.409 190.232,181.309 185.000 C 183.248 173.719,185.349 168.417,189.742 163.715 C 194.363 158.769,202.972 156.578,208.744 158.878 C 216.529 161.980,222.694 168.938,229.393 182.180 C 231.962 187.260,232.345 187.813,233.379 187.932 L 234.522 188.065 234.258 181.532 C 234.113 177.940,233.878 171.069,233.736 166.264 C 233.447 156.495,233.330 156.157,231.063 158.561 C 229.352 160.375,228.412 160.402,222.250 158.813 C 210.544 155.795,197.217 154.757,190.400 156.332 C 185.384 157.492,184.492 157.727,182.200 158.497 C 178.898 159.607,175.377 161.233,173.022 162.737 C 171.934 163.432,170.880 164.000,170.680 164.000 C 170.471 164.000,170.377 161.154,170.458 157.300 L 170.600 150.600 169.462 150.600 C 168.415 150.600,168.222 150.854,167.028 153.800 C 160.343 170.296,148.399 178.706,132.200 178.323 L 127.000 178.200 126.897 155.108 L 126.794 132.017 127.889 131.742 C 129.931 131.229,136.125 132.172,138.567 133.366 C 143.044 135.557,146.386 140.290,148.618 147.600 C 149.189 149.470,149.733 151.238,149.826 151.528 C 149.920 151.818,150.402 151.998,150.898 151.928 L 151.800 151.800 151.904 130.824 C 151.961 119.287,151.856 109.696,151.670 109.510 C 151.095 108.935,150.004 109.638,149.757 110.744 C 147.074 122.728,137.221 130.600,127.848 128.248 L 126.793 127.983 126.897 105.692 L 127.000 83.400 131.800 83.270 C 147.143 82.856,154.835 87.976,162.287 103.564 C 164.486 108.163,165.535 109.426,166.420 108.540 C 166.722 108.237,166.524 102.200,165.670 85.800 L 165.400 80.600 128.088 80.498 C 95.836 80.410,90.746 80.474,90.554 80.975 " stroke="none" fill="#084fad" fill-rule="evenodd"></path><path id="path1" d="M58.699 58.701 L 0.000 117.401 -0.000 200.002 L -0.000 282.604 58.703 341.302 L 117.406 400.000 200.000 400.000 L 282.594 400.000 341.297 341.302 L 400.000 282.604 400.000 200.001 L 400.000 117.399 341.299 58.699 L 282.599 0.000 199.999 0.000 L 117.399 -0.000 58.699 58.701 M339.899 60.099 L 397.600 117.799 397.600 199.999 L 397.600 282.199 339.901 339.899 L 282.201 397.600 200.001 397.600 L 117.801 397.600 60.101 339.901 L 2.400 282.201 2.400 200.001 L 2.400 117.801 60.099 60.101 L 117.799 2.400 199.999 2.400 L 282.199 2.400 339.899 60.099 M66.799 66.601 L 11.400 122.001 11.400 200.002 L 11.400 278.002 66.803 333.401 L 122.206 388.800 200.000 388.800 L 277.794 388.800 333.197 333.401 L 388.600 278.002 388.600 200.002 L 388.600 122.001 333.201 66.601 L 277.801 11.200 200.000 11.200 L 122.199 11.200 66.799 66.601 M331.899 68.099 L 386.400 122.599 386.400 199.999 L 386.400 277.399 331.901 331.899 L 277.401 386.400 200.001 386.400 L 122.601 386.400 68.101 331.901 L 13.600 277.401 13.600 200.001 L 13.600 122.601 68.099 68.101 L 122.599 13.600 199.999 13.600 L 277.399 13.600 331.899 68.099 M77.999 72.700 L 25.400 125.400 78.100 72.801 C 107.085 43.871,130.800 20.156,130.800 20.101 C 130.800 19.821,126.901 23.705,77.999 72.700 M331.798 72.900 C 360.839 101.995,384.682 125.748,384.783 125.684 C 384.984 125.556,279.527 20.000,279.199 20.000 C 279.087 20.000,302.757 43.805,331.798 72.900 M78.799 74.300 L 27.000 126.200 78.900 74.401 C 127.151 26.243,130.979 22.400,130.699 22.400 C 130.644 22.400,107.289 45.755,78.799 74.300 M323.200 81.000 C 350.149 107.950,372.289 130.000,372.399 130.000 C 372.509 130.000,350.549 107.950,323.600 81.000 C 296.651 54.050,274.511 32.000,274.401 32.000 C 274.291 32.000,296.251 54.050,323.200 81.000 M90.662 80.300 C 90.560 80.465,107.362 80.600,128.000 80.600 C 148.638 80.600,165.440 80.465,165.338 80.300 C 165.096 79.908,90.904 79.908,90.662 80.300 M98.800 130.720 L 99.000 178.200 99.102 131.022 C 99.158 105.074,99.068 83.708,98.902 83.542 C 98.736 83.376,98.690 104.606,98.800 130.720 M126.987 105.800 C 126.987 118.120,127.038 123.218,127.100 117.128 C 127.162 111.039,127.162 100.959,127.100 94.728 C 127.038 88.498,126.987 93.480,126.987 105.800 M165.693 88.000 C 165.693 88.770,165.775 89.085,165.876 88.700 C 165.976 88.315,165.976 87.685,165.876 87.300 C 165.775 86.915,165.693 87.230,165.693 88.000 M166.101 93.400 C 166.105 94.280,166.187 94.593,166.283 94.095 C 166.379 93.598,166.375 92.878,166.275 92.495 C 166.175 92.113,166.096 92.520,166.101 93.400 M166.493 104.000 C 166.493 104.770,166.575 105.085,166.676 104.700 C 166.776 104.315,166.776 103.685,166.676 103.300 C 166.575 102.915,166.493 103.230,166.493 104.000 M44.196 123.300 L 37.400 130.200 44.300 123.404 C 50.710 117.091,51.381 116.400,51.096 116.400 C 51.038 116.400,47.933 119.505,44.196 123.300 M26.996 200.000 C 26.996 240.590,27.043 257.195,27.100 236.900 C 27.157 216.605,27.157 183.395,27.100 163.100 C 27.043 142.805,26.996 159.410,26.996 200.000 M382.996 200.000 C 382.996 240.590,383.043 257.195,383.100 236.900 C 383.157 216.605,383.157 183.395,383.100 163.100 C 383.043 142.805,382.996 159.410,382.996 200.000 M129.111 128.293 C 130.051 128.378,131.491 128.377,132.311 128.291 C 133.130 128.205,132.360 128.136,130.600 128.137 C 128.840 128.139,128.170 128.209,129.111 128.293 M374.596 200.000 C 374.596 238.610,374.643 254.405,374.700 235.100 C 374.757 215.795,374.757 184.205,374.700 164.900 C 374.643 145.595,374.596 161.390,374.596 200.000 M36.996 200.000 C 36.996 238.170,37.043 253.785,37.100 234.700 C 37.157 215.615,37.157 184.385,37.100 165.300 C 37.043 146.215,36.996 161.830,36.996 200.000 M128.700 131.889 C 129.415 131.978,130.585 131.978,131.300 131.889 C 132.015 131.801,131.430 131.728,130.000 131.728 C 128.570 131.728,127.985 131.801,128.700 131.889 M126.987 155.000 C 126.987 167.760,127.038 173.038,127.100 166.729 C 127.162 160.419,127.162 149.979,127.100 143.529 C 127.038 137.078,126.987 142.240,126.987 155.000 M170.509 154.400 C 170.509 155.390,170.587 155.795,170.682 155.300 C 170.778 154.805,170.778 153.995,170.682 153.500 C 170.587 153.005,170.509 153.410,170.509 154.400 M200.100 155.476 C 200.485 155.576,201.115 155.576,201.500 155.476 C 201.885 155.375,201.570 155.293,200.800 155.293 C 200.030 155.293,199.715 155.375,200.100 155.476 M201.907 158.290 C 202.626 158.379,203.706 158.377,204.307 158.286 C 204.908 158.195,204.320 158.122,203.000 158.124 C 201.680 158.126,201.188 158.201,201.907 158.290 M233.709 169.200 C 233.709 170.190,233.787 170.595,233.882 170.100 C 233.978 169.605,233.978 168.795,233.882 168.300 C 233.787 167.805,233.709 168.210,233.709 169.200 M234.114 176.600 C 234.117 177.700,234.195 178.103,234.287 177.495 C 234.379 176.886,234.377 175.986,234.282 175.495 C 234.187 175.003,234.111 175.500,234.114 176.600 M180.493 194.400 C 180.493 195.170,180.575 195.485,180.676 195.100 C 180.776 194.715,180.776 194.085,180.676 193.700 C 180.575 193.315,180.493 193.630,180.493 194.400 M180.493 219.600 C 180.493 220.370,180.575 220.685,180.676 220.300 C 180.776 219.915,180.776 219.285,180.676 218.900 C 180.575 218.515,180.493 218.830,180.493 219.600 M316.109 232.400 C 316.109 233.390,316.187 233.795,316.282 233.300 C 316.378 232.805,316.378 231.995,316.282 231.500 C 316.187 231.005,316.109 231.410,316.109 232.400 M316.509 239.200 C 316.509 240.190,316.587 240.595,316.682 240.100 C 316.778 239.605,316.778 238.795,316.682 238.300 C 316.587 237.805,316.509 238.210,316.509 239.200 M190.600 251.600 C 191.459 252.480,192.252 253.200,192.362 253.200 C 192.472 253.200,191.859 252.480,191.000 251.600 C 190.141 250.720,189.348 250.000,189.238 250.000 C 189.128 250.000,189.741 250.720,190.600 251.600 M316.909 252.400 C 316.909 253.390,316.987 253.795,317.082 253.300 C 317.178 252.805,317.178 251.995,317.082 251.500 C 316.987 251.005,316.909 251.410,316.909 252.400 M203.100 257.082 C 203.595 257.178,204.405 257.178,204.900 257.082 C 205.395 256.987,204.990 256.909,204.000 256.909 C 203.010 256.909,202.605 256.987,203.100 257.082 M314.749 258.900 C 315.052 259.286,315.770 259.576,316.349 259.546 L 317.400 259.491 316.400 259.307 C 315.850 259.206,315.130 258.916,314.800 258.662 C 314.278 258.260,314.271 258.291,314.749 258.900 M44.200 276.800 C 47.935 280.540,51.081 283.600,51.191 283.600 C 51.301 283.600,48.335 280.540,44.600 276.800 C 40.865 273.060,37.719 270.000,37.609 270.000 C 37.499 270.000,40.465 273.060,44.200 276.800 M323.199 319.100 L 274.200 368.200 323.300 319.201 C 350.305 292.251,372.400 270.156,372.400 270.101 C 372.400 269.821,368.754 273.452,323.199 319.100 M78.800 325.800 C 107.289 354.290,130.689 377.600,130.799 377.600 C 130.909 377.600,107.689 354.290,79.200 325.800 C 50.711 297.310,27.311 274.000,27.201 274.000 C 27.091 274.000,50.311 297.310,78.800 325.800 M332.001 327.000 L 279.402 379.800 332.184 327.117 C 361.214 298.141,384.884 274.381,384.783 274.317 C 384.682 274.252,360.930 297.960,332.001 327.000 M77.800 327.200 C 106.619 356.020,130.289 379.600,130.399 379.600 C 130.509 379.600,107.019 356.020,78.200 327.200 C 49.381 298.380,25.711 274.800,25.601 274.800 C 25.491 274.800,48.981 298.380,77.800 327.200 " stroke="none" fill="#3eb6fc" fill-rule="evenodd"></path><path id="path2" d="M0.000 58.299 L 0.000 116.599 58.200 58.400 C 90.210 26.391,116.400 0.156,116.400 0.101 C 116.400 0.045,90.210 0.000,58.200 0.000 L 0.000 0.000 0.000 58.299 M341.600 58.200 C 373.609 90.210,399.844 116.400,399.899 116.400 C 399.955 116.400,400.000 90.210,400.000 58.200 L 400.000 0.000 341.701 0.000 L 283.401 0.000 341.600 58.200 M60.499 60.501 L 2.800 118.201 2.800 200.001 L 2.800 281.801 60.501 339.501 L 118.201 397.200 200.001 397.200 L 281.801 397.200 339.501 339.499 L 397.200 281.799 397.200 199.999 L 397.200 118.199 339.499 60.499 L 281.799 2.800 199.999 2.800 L 118.199 2.800 60.499 60.501 M333.701 66.305 L 389.206 121.809 389.103 200.106 L 389.000 278.403 333.597 333.801 L 278.194 389.200 200.000 389.200 L 121.806 389.200 66.403 333.801 L 11.000 278.403 10.897 200.106 L 10.794 121.809 66.299 66.305 L 121.803 10.800 200.000 10.800 L 278.197 10.800 333.701 66.305 M68.499 68.501 L 14.000 123.001 14.000 200.001 L 14.000 277.001 68.501 331.501 L 123.001 386.000 200.001 386.000 L 277.001 386.000 331.501 331.499 L 386.000 276.999 386.000 199.999 L 386.000 122.999 331.499 68.499 L 276.999 14.000 199.999 14.000 L 122.999 14.000 68.499 68.501 M332.499 72.299 L 385.200 124.999 385.200 200.002 L 385.200 275.004 332.496 327.702 L 279.793 380.400 204.998 380.400 L 130.203 380.400 77.502 327.698 L 24.800 274.997 24.800 200.002 L 24.800 125.007 77.498 72.304 L 130.196 19.600 204.997 19.600 L 279.799 19.600 332.499 72.299 M79.499 74.701 L 27.600 126.601 27.600 200.001 L 27.600 273.401 79.501 325.301 L 131.401 377.200 205.003 377.200 L 278.604 377.200 330.502 325.296 L 382.400 273.393 382.400 200.000 L 382.400 126.607 330.502 74.704 L 278.604 22.800 205.002 22.800 L 131.399 22.800 79.499 74.701 M325.106 79.300 C 364.185 118.369,374.907 129.299,375.227 130.400 C 375.500 131.335,375.596 154.836,375.518 201.101 L 375.400 270.403 325.397 320.401 L 275.393 370.400 205.000 370.400 L 134.608 370.400 84.704 320.502 L 34.800 270.604 34.800 200.000 L 34.800 129.396 84.704 79.498 L 134.608 29.600 205.000 29.600 L 275.392 29.600 325.106 79.300 M86.728 81.700 L 38.031 130.600 38.031 200.000 L 38.031 269.400 86.728 318.300 L 135.425 367.200 204.990 367.200 L 274.555 367.200 323.456 318.100 L 372.358 269.000 372.358 200.000 L 372.358 131.000 323.456 81.900 L 274.555 32.800 204.990 32.800 L 135.425 32.800 86.728 81.700 M166.061 81.400 C 166.353 83.107,167.355 102.050,167.383 106.400 L 167.400 109.000 165.800 109.000 L 164.200 109.000 161.600 103.788 C 153.707 87.964,146.780 83.600,129.558 83.600 L 127.600 83.600 127.600 105.600 L 127.600 127.600 130.900 127.596 C 139.678 127.584,145.172 122.834,148.557 112.328 C 149.669 108.878,150.249 108.171,151.613 108.604 C 152.751 108.965,152.789 109.693,152.795 131.051 C 152.800 153.360,152.881 152.600,150.530 152.329 C 149.492 152.209,149.308 151.896,147.989 148.000 C 144.059 136.392,139.554 132.400,130.380 132.400 L 127.600 132.400 127.600 155.200 L 127.600 178.000 131.300 177.993 C 146.669 177.964,157.999 170.871,164.831 157.003 C 165.914 154.804,166.800 152.770,166.800 152.483 C 166.800 150.857,168.022 149.600,169.603 149.600 C 171.636 149.600,171.686 149.822,171.301 157.100 C 170.985 163.081,171.035 163.253,172.738 162.051 C 183.125 154.720,201.585 152.882,219.400 157.404 C 228.091 159.610,229.228 159.650,230.911 157.813 C 233.969 154.476,234.091 155.031,234.776 175.377 C 235.236 189.026,235.247 188.930,233.153 188.729 C 231.856 188.605,231.706 188.403,229.193 183.400 C 220.340 165.780,212.914 158.808,203.000 158.809 C 192.138 158.811,185.938 165.825,182.567 181.923 C 180.614 191.247,180.651 222.427,182.626 231.945 C 185.908 247.762,192.442 255.629,202.856 256.301 C 212.699 256.936,221.573 248.896,230.048 231.664 C 232.493 226.693,233.146 225.680,234.286 225.094 C 236.416 223.997,315.771 224.024,316.358 225.122 C 316.570 225.519,316.939 231.144,317.176 237.622 C 317.414 244.100,317.723 251.675,317.863 254.455 C 318.108 259.330,318.087 259.525,317.267 259.964 C 315.489 260.916,314.562 260.170,313.418 256.867 C 312.319 253.691,311.425 251.244,309.925 247.300 C 304.931 234.166,299.275 228.492,291.100 228.414 L 289.600 228.400 289.600 273.200 L 289.600 318.000 294.951 318.000 C 300.910 318.000,301.348 318.175,301.127 320.474 L 301.000 321.800 275.600 321.800 L 250.200 321.800 250.072 320.241 C 249.898 318.113,250.177 318.013,256.300 318.006 L 261.600 318.000 261.600 273.145 L 261.600 228.290 259.100 228.509 C 254.066 228.948,250.108 231.043,247.400 234.702 C 244.543 238.564,240.086 248.521,237.364 257.126 C 236.160 260.931,233.324 261.720,232.666 258.432 C 232.251 256.357,230.815 255.773,227.458 256.313 C 224.844 256.734,223.766 256.962,219.600 257.978 C 205.415 261.437,188.766 260.973,178.600 256.837 C 159.271 248.972,150.767 234.408,150.666 209.000 C 150.622 197.735,151.667 191.429,155.034 182.655 C 155.266 182.052,152.740 182.000,122.923 182.000 C 88.339 182.000,89.600 182.076,89.600 180.000 C 89.600 178.265,90.245 178.000,94.480 178.000 L 98.400 178.000 98.400 131.433 C 98.400 105.821,98.291 84.581,98.157 84.233 C 97.958 83.715,97.197 83.600,93.965 83.600 C 89.609 83.600,88.828 83.012,89.942 80.568 L 90.385 79.596 128.086 79.698 L 165.786 79.800 166.061 81.400 M0.000 341.800 L 0.000 400.000 58.299 400.000 L 116.599 400.000 58.400 341.800 C 26.391 309.790,0.156 283.600,0.101 283.600 C 0.045 283.600,0.000 309.790,0.000 341.800 M341.600 341.800 L 283.401 400.000 341.701 400.000 L 400.000 400.000 400.000 341.800 C 400.000 309.790,399.955 283.600,399.899 283.600 C 399.844 283.600,373.609 309.790,341.600 341.800 " stroke="none" fill="#fbfbfb" fill-rule="evenodd"></path><path id="path3" d="M59.999 60.300 L 2.200 118.200 60.100 60.401 C 113.930 6.664,118.179 2.400,117.899 2.400 C 117.844 2.400,91.789 28.455,59.999 60.300 M339.600 60.200 C 371.389 91.990,397.489 118.000,397.599 118.000 C 397.709 118.000,371.789 91.990,340.000 60.200 C 308.211 28.410,282.111 2.400,282.001 2.400 C 281.891 2.400,307.811 28.410,339.600 60.200 M66.599 66.500 L 11.400 121.800 66.700 66.601 C 97.115 36.241,122.000 11.356,122.000 11.301 C 122.000 11.021,117.919 15.087,66.599 66.500 M333.000 66.400 C 363.359 96.760,388.289 121.600,388.399 121.600 C 388.509 121.600,363.759 96.760,333.400 66.400 C 303.041 36.040,278.111 11.200,278.001 11.200 C 277.891 11.200,302.641 36.040,333.000 66.400 M77.799 72.500 L 25.400 125.000 77.900 72.601 C 106.775 43.781,130.400 20.156,130.400 20.101 C 130.400 19.821,126.515 23.691,77.799 72.500 M332.000 72.600 C 360.929 101.530,384.689 125.200,384.799 125.200 C 384.909 125.200,361.329 101.530,332.400 72.600 C 303.471 43.670,279.711 20.000,279.601 20.000 C 279.491 20.000,303.071 43.670,332.000 72.600 M168.332 22.300 C 188.644 22.357,221.764 22.357,241.932 22.300 C 262.099 22.243,245.480 22.196,205.000 22.196 C 164.520 22.196,148.019 22.243,168.332 22.300 M78.999 74.500 L 27.000 126.600 79.100 74.601 C 107.755 46.001,131.200 22.556,131.200 22.501 C 131.200 22.221,127.343 26.063,78.999 74.500 M330.500 74.201 L 382.400 126.201 382.400 200.000 L 382.400 273.799 330.500 325.799 L 278.600 377.800 330.700 325.801 L 382.800 273.801 382.800 200.000 L 382.800 126.199 330.700 74.199 L 278.600 22.200 330.500 74.201 M98.902 65.548 C 79.376 85.100,57.010 107.555,49.201 115.448 C 41.391 123.342,57.411 107.435,84.801 80.100 L 134.601 30.400 205.003 30.400 L 275.404 30.400 325.102 80.104 L 374.800 129.808 374.800 200.000 L 374.800 270.192 325.102 319.896 L 275.404 369.600 205.003 369.600 L 134.601 369.600 84.801 319.900 C 57.411 292.565,41.211 276.478,48.801 284.152 C 56.390 291.825,78.756 314.280,98.502 334.052 L 134.403 370.000 204.902 370.000 L 275.401 370.000 325.301 320.099 L 375.200 270.199 375.200 200.003 L 375.200 129.808 325.302 79.904 L 275.404 30.000 204.904 30.000 L 134.403 30.000 98.902 65.548 M135.462 32.300 C 135.360 32.465,166.533 32.554,204.735 32.498 L 274.194 32.395 323.297 81.497 L 372.400 130.599 372.400 200.000 L 372.400 269.401 323.297 318.503 L 274.194 367.605 204.735 367.502 C 166.533 367.446,135.360 367.535,135.462 367.700 C 135.564 367.865,166.822 368.000,204.924 368.000 L 274.201 368.000 323.501 318.699 L 372.800 269.399 372.800 199.999 L 372.800 130.599 323.499 81.299 L 274.199 32.000 204.923 32.000 C 166.821 32.000,135.564 32.135,135.462 32.300 M76.700 90.885 L 37.200 130.522 37.200 200.000 L 37.200 269.478 76.820 309.186 C 98.611 331.025,116.514 348.820,116.604 348.730 C 116.694 348.640,98.955 330.754,77.184 308.984 L 37.600 269.402 37.600 200.002 L 37.600 130.602 77.299 90.901 C 99.134 69.065,116.819 51.211,116.599 51.224 C 116.380 51.238,98.425 69.085,76.700 90.885 M90.156 80.571 C 90.035 80.885,90.004 81.560,90.086 82.071 C 90.195 82.754,90.288 82.604,90.437 81.500 C 90.647 79.947,90.536 79.581,90.156 80.571 M165.715 83.600 C 165.709 85.030,165.832 87.550,165.988 89.200 L 166.271 92.200 166.286 89.400 C 166.294 87.860,166.171 85.340,166.013 83.800 L 165.726 81.000 165.715 83.600 M94.602 83.492 L 98.406 83.629 98.303 131.015 C 98.246 157.077,98.336 178.400,98.502 178.400 C 98.668 178.400,98.758 157.025,98.702 130.900 L 98.600 83.400 94.699 83.377 L 90.798 83.354 94.602 83.492 M127.400 83.400 C 127.620 83.476,130.410 83.609,133.600 83.695 C 136.790 83.782,138.860 83.728,138.200 83.574 C 137.021 83.300,126.618 83.132,127.400 83.400 M141.400 84.400 C 141.840 84.589,142.470 84.744,142.800 84.744 C 143.178 84.744,143.104 84.617,142.600 84.400 C 142.160 84.211,141.530 84.056,141.200 84.056 C 140.822 84.056,140.896 84.183,141.400 84.400 M153.188 90.527 C 154.612 91.997,155.848 93.200,155.935 93.200 C 156.230 93.200,153.406 90.205,152.000 89.027 C 151.230 88.382,151.765 89.057,153.188 90.527 M157.053 95.208 C 157.638 96.093,158.199 96.734,158.299 96.634 C 158.478 96.455,156.454 93.600,156.147 93.600 C 156.060 93.600,156.468 94.324,157.053 95.208 M166.517 99.400 C 166.510 100.940,166.632 103.550,166.788 105.200 L 167.071 108.200 167.083 105.400 C 167.090 103.860,166.968 101.250,166.812 99.600 L 166.529 96.600 166.517 99.400 M159.800 99.600 C 160.141 100.260,160.511 100.800,160.621 100.800 C 160.731 100.800,160.541 100.260,160.200 99.600 C 159.859 98.940,159.489 98.400,159.379 98.400 C 159.269 98.400,159.459 98.940,159.800 99.600 M149.867 109.067 C 149.328 109.605,149.619 110.082,150.195 109.604 C 151.979 108.124,151.994 108.291,152.096 130.687 L 152.193 151.800 152.307 131.200 C 152.370 119.870,152.323 110.195,152.203 109.700 C 151.991 108.825,150.510 108.423,149.867 109.067 M145.093 120.403 C 144.518 121.281,144.117 122.000,144.203 122.000 C 144.513 122.000,146.507 119.174,146.325 118.992 C 146.223 118.889,145.668 119.524,145.093 120.403 M142.575 123.700 L 141.400 125.000 142.700 123.825 C 143.912 122.730,144.184 122.400,143.875 122.400 C 143.806 122.400,143.221 122.985,142.575 123.700 M25.299 200.001 L 25.200 275.001 77.701 327.501 C 106.576 356.375,130.292 380.000,130.404 380.000 C 130.516 380.000,106.981 356.376,78.105 327.503 L 25.602 275.006 25.500 200.003 L 25.398 125.000 25.299 200.001 M135.000 127.600 L 134.200 127.944 135.000 127.966 C 135.440 127.978,136.070 127.813,136.400 127.600 C 137.195 127.086,136.196 127.086,135.000 127.600 M34.996 200.000 C 34.996 238.610,35.043 254.405,35.100 235.100 C 35.157 215.795,35.157 184.205,35.100 164.900 C 35.043 145.595,34.996 161.390,34.996 200.000 M134.000 132.400 C 135.542 132.894,136.364 132.894,135.600 132.400 C 135.270 132.187,134.550 132.027,134.000 132.046 L 133.000 132.080 134.000 132.400 M139.600 134.266 C 140.150 134.642,141.589 135.951,142.798 137.175 C 145.111 139.516,144.849 138.885,142.422 136.267 C 141.640 135.424,140.460 134.475,139.800 134.158 C 138.603 133.583,138.602 133.584,139.600 134.266 M145.882 141.789 C 146.473 142.993,147.023 143.911,147.105 143.829 C 147.284 143.649,145.267 139.600,144.998 139.600 C 144.894 139.600,145.292 140.585,145.882 141.789 M148.972 150.200 C 149.129 150.860,149.429 151.576,149.639 151.791 C 149.850 152.006,149.810 151.556,149.551 150.791 C 148.946 149.000,148.605 148.652,148.972 150.200 M167.823 150.489 C 167.480 150.978,167.215 151.653,167.233 151.989 C 167.251 152.325,167.521 152.015,167.834 151.300 C 168.399 150.009,168.935 149.770,170.189 150.251 C 170.775 150.476,170.814 151.209,170.563 157.251 C 170.269 164.311,170.324 164.535,172.000 163.164 C 172.854 162.466,172.872 162.409,172.126 162.773 C 171.646 163.008,171.133 163.200,170.987 163.200 C 170.842 163.200,170.854 160.300,171.014 156.756 C 171.254 151.471,171.207 150.250,170.753 149.963 C 169.772 149.341,168.462 149.577,167.823 150.489 M193.000 155.601 C 192.340 155.770,193.510 155.814,195.600 155.698 C 197.690 155.583,199.475 155.424,199.567 155.344 C 199.881 155.072,194.201 155.294,193.000 155.601 M202.033 155.347 C 202.125 155.429,204.000 155.593,206.200 155.713 C 208.934 155.862,209.630 155.825,208.400 155.595 C 206.600 155.259,201.719 155.069,202.033 155.347 M188.000 156.400 C 187.208 156.654,187.167 156.720,187.800 156.720 C 188.240 156.720,189.050 156.576,189.600 156.400 C 190.392 156.146,190.433 156.080,189.800 156.080 C 189.360 156.080,188.550 156.224,188.000 156.400 M212.200 156.400 C 213.892 156.831,215.344 156.831,214.000 156.400 C 213.450 156.224,212.550 156.083,212.000 156.087 C 211.102 156.094,211.122 156.126,212.200 156.400 M216.200 157.200 C 216.640 157.389,217.270 157.544,217.600 157.544 C 217.978 157.544,217.904 157.417,217.400 157.200 C 216.960 157.011,216.330 156.856,216.000 156.856 C 215.622 156.856,215.696 156.983,216.200 157.200 M230.662 158.251 C 229.237 159.576,228.989 159.663,227.262 159.448 C 225.984 159.288,225.651 159.330,226.200 159.580 C 228.117 160.452,230.071 159.844,231.595 157.900 C 232.737 156.444,232.517 156.527,230.662 158.251 M182.000 158.000 C 181.467 158.345,181.467 158.388,182.000 158.388 C 182.330 158.388,182.870 158.213,183.200 158.000 C 183.733 157.655,183.733 157.612,183.200 157.612 C 182.870 157.612,182.330 157.787,182.000 158.000 M219.400 158.000 C 219.840 158.189,220.470 158.344,220.800 158.344 C 221.178 158.344,221.104 158.217,220.600 158.000 C 220.160 157.811,219.530 157.656,219.200 157.656 C 218.822 157.656,218.896 157.783,219.400 158.000 M197.800 158.800 L 197.000 159.144 197.800 159.144 C 198.240 159.144,198.960 158.989,199.400 158.800 L 200.200 158.456 199.400 158.456 C 198.960 158.456,198.240 158.611,197.800 158.800 M206.400 158.800 C 207.768 159.238,208.819 159.238,207.800 158.800 C 207.360 158.611,206.640 158.462,206.200 158.468 C 205.557 158.477,205.596 158.543,206.400 158.800 M222.600 158.800 C 223.040 158.989,223.670 159.144,224.000 159.144 C 224.378 159.144,224.304 159.017,223.800 158.800 C 223.360 158.611,222.730 158.456,222.400 158.456 C 222.022 158.456,222.096 158.583,222.600 158.800 M233.716 162.800 C 233.706 164.890,233.826 168.490,233.982 170.800 L 234.266 175.000 234.284 171.200 C 234.294 169.110,234.174 165.510,234.018 163.200 L 233.734 159.000 233.716 162.800 M192.956 161.042 C 190.924 162.403,189.713 163.525,188.686 165.000 C 188.227 165.660,188.834 165.190,190.037 163.956 C 191.240 162.722,192.803 161.412,193.512 161.046 C 194.220 160.679,194.800 160.294,194.800 160.190 C 194.800 159.859,194.549 159.975,192.956 161.042 M174.300 161.429 C 172.805 162.240,172.896 162.578,174.400 161.800 C 175.060 161.459,175.600 161.094,175.600 160.990 C 175.600 160.732,175.557 160.747,174.300 161.429 M212.400 160.990 C 212.400 161.094,212.930 161.454,213.578 161.789 C 214.227 162.124,216.149 163.794,217.851 165.499 C 220.142 167.796,220.537 168.091,219.373 166.638 C 217.248 163.984,212.400 160.057,212.400 160.990 M161.815 162.849 C 161.215 163.756,159.258 166.051,157.467 167.949 C 155.676 169.847,154.743 170.950,155.394 170.400 C 158.334 167.916,163.959 161.200,163.099 161.200 C 162.993 161.200,162.415 161.942,161.815 162.849 M186.200 168.800 C 185.859 169.460,185.669 170.000,185.779 170.000 C 185.889 170.000,186.259 169.460,186.600 168.800 C 186.941 168.140,187.131 167.600,187.021 167.600 C 186.911 167.600,186.541 168.140,186.200 168.800 M222.864 171.900 C 225.095 175.267,225.988 176.377,225.196 174.800 C 224.584 173.582,221.228 168.800,220.985 168.800 C 220.889 168.800,221.735 170.195,222.864 171.900 M151.887 172.568 C 149.400 174.290,148.979 174.784,151.000 173.609 C 152.451 172.766,154.452 171.168,153.989 171.222 C 153.885 171.234,152.939 171.840,151.887 172.568 M226.186 177.100 C 226.535 177.815,226.906 178.400,227.010 178.400 C 227.408 178.400,227.152 177.763,226.367 176.800 L 225.552 175.800 226.186 177.100 M141.400 177.200 C 140.896 177.417,140.822 177.544,141.200 177.544 C 141.530 177.544,142.160 177.389,142.600 177.200 C 143.104 176.983,143.178 176.856,142.800 176.856 C 142.470 176.856,141.840 177.011,141.400 177.200 M136.200 178.000 L 134.600 178.286 136.200 178.303 C 137.080 178.313,138.250 178.176,138.800 178.000 L 139.800 177.680 138.800 177.697 C 138.250 177.706,137.080 177.842,136.200 178.000 M182.673 178.153 C 182.523 178.545,182.411 179.166,182.425 179.533 C 182.442 179.975,182.581 179.874,182.837 179.234 C 183.049 178.703,183.161 178.082,183.085 177.854 C 183.009 177.627,182.824 177.761,182.673 178.153 M90.156 178.971 C 90.035 179.285,90.004 179.960,90.086 180.471 C 90.195 181.154,90.288 181.004,90.437 179.900 C 90.647 178.347,90.536 177.981,90.156 178.971 M229.085 182.584 C 230.119 184.666,231.029 186.304,231.107 186.226 C 231.285 186.049,227.665 178.800,227.399 178.800 C 227.292 178.800,228.051 180.503,229.085 182.584 M181.778 182.578 C 181.627 183.381,181.594 184.127,181.704 184.237 C 181.814 184.347,182.027 183.781,182.178 182.978 C 182.328 182.175,182.362 181.428,182.252 181.318 C 182.142 181.208,181.928 181.775,181.778 182.578 M234.390 184.600 C 234.185 188.479,233.157 189.762,231.995 187.590 C 231.742 187.118,231.431 186.836,231.303 186.963 C 230.867 187.400,232.523 188.800,233.475 188.800 C 234.731 188.800,234.858 188.343,234.707 184.367 L 234.580 181.000 234.390 184.600 M180.987 188.587 C 180.831 190.044,180.793 191.326,180.903 191.436 C 181.013 191.546,181.231 190.444,181.387 188.987 C 181.543 187.529,181.580 186.247,181.470 186.137 C 181.360 186.027,181.143 187.129,180.987 188.587 M153.029 189.429 C 152.881 190.015,152.838 190.572,152.932 190.666 C 153.027 190.760,153.224 190.358,153.371 189.771 C 153.519 189.185,153.562 188.628,153.468 188.534 C 153.373 188.440,153.176 188.842,153.029 189.429 M152.200 192.800 C 152.048 193.491,152.014 194.147,152.124 194.257 C 152.234 194.367,152.448 193.891,152.600 193.200 C 152.752 192.509,152.786 191.853,152.676 191.743 C 152.566 191.633,152.352 192.109,152.200 192.800 M151.400 197.600 C 151.245 198.728,151.208 199.741,151.318 199.851 C 151.428 199.961,151.645 199.128,151.800 198.000 C 151.955 196.872,151.992 195.859,151.882 195.749 C 151.772 195.639,151.555 196.472,151.400 197.600 M180.577 207.000 C 180.577 213.380,180.632 215.934,180.699 212.676 C 180.767 209.417,180.766 204.197,180.699 201.076 C 180.631 197.954,180.576 200.620,180.577 207.000 M150.961 208.800 C 150.961 212.210,151.022 213.605,151.097 211.900 C 151.172 210.195,151.172 207.405,151.097 205.700 C 151.022 203.995,150.961 205.390,150.961 208.800 M151.286 218.400 C 151.283 219.170,151.424 220.250,151.600 220.800 C 152.050 222.204,152.065 220.737,151.623 218.600 L 151.292 217.000 151.286 218.400 M180.897 223.800 C 180.896 224.680,181.032 225.940,181.200 226.600 C 181.640 228.330,181.655 226.443,181.220 224.000 L 180.900 222.200 180.897 223.800 M152.056 223.800 C 152.056 224.240,152.211 224.960,152.400 225.400 L 152.744 226.200 152.744 225.400 C 152.744 224.960,152.589 224.240,152.400 223.800 L 152.056 223.000 152.056 223.800 M233.901 225.537 C 233.296 225.901,232.801 226.332,232.801 226.494 C 232.800 226.656,233.385 226.432,234.100 225.996 C 235.373 225.219,236.230 225.203,275.700 225.201 L 316.000 225.200 316.047 227.500 C 316.073 228.765,316.238 231.600,316.414 233.800 C 316.691 237.256,316.712 236.965,316.569 231.664 C 316.477 228.289,316.301 225.364,316.178 225.164 C 315.715 224.416,235.153 224.781,233.901 225.537 M255.800 228.400 C 254.781 228.838,255.832 228.838,257.200 228.400 C 258.004 228.143,258.043 228.077,257.400 228.068 C 256.960 228.062,256.240 228.211,255.800 228.400 M261.503 273.200 L 261.607 318.400 256.003 318.400 C 252.922 318.400,250.400 318.535,250.399 318.700 C 250.398 319.254,261.494 318.810,261.970 318.236 C 262.552 317.534,262.384 228.328,261.800 228.133 C 261.535 228.045,261.435 243.199,261.503 273.200 M288.898 273.300 L 289.000 318.600 294.584 318.712 C 298.410 318.788,300.277 318.977,300.514 319.312 C 300.764 319.663,300.815 319.632,300.698 319.200 C 300.564 318.709,299.500 318.580,294.864 318.489 L 289.193 318.378 289.297 273.189 C 289.353 248.335,289.264 228.000,289.098 228.000 C 288.932 228.000,288.842 248.385,288.898 273.300 M293.600 228.400 C 295.142 228.894,295.964 228.894,295.200 228.400 C 294.870 228.187,294.150 228.027,293.600 228.046 L 292.600 228.080 293.600 228.400 M231.072 230.219 C 230.132 232.189,230.264 232.524,231.247 230.662 C 231.693 229.816,231.987 229.054,231.901 228.967 C 231.814 228.881,231.441 229.444,231.072 230.219 M252.700 229.429 C 251.149 230.270,251.325 230.561,252.900 229.759 C 254.408 228.993,254.675 228.794,254.167 228.816 C 253.965 228.825,253.305 229.101,252.700 229.429 M181.668 230.000 C 181.662 230.550,181.811 231.360,182.000 231.800 L 182.344 232.600 182.332 231.800 C 182.326 231.360,182.176 230.550,182.000 230.000 L 181.680 229.000 181.668 230.000 M299.200 230.320 C 299.750 230.693,301.098 231.808,302.195 232.799 C 303.292 233.789,303.923 234.240,303.596 233.800 C 302.477 232.294,299.212 229.583,298.562 229.621 C 298.363 229.633,298.650 229.947,299.200 230.320 M248.378 232.700 L 247.000 234.200 248.500 232.822 C 249.896 231.538,250.184 231.200,249.878 231.200 C 249.812 231.200,249.137 231.875,248.378 232.700 M229.000 234.400 C 228.443 235.500,228.077 236.400,228.187 236.400 C 228.297 236.400,228.843 235.500,229.400 234.400 C 229.957 233.300,230.323 232.400,230.213 232.400 C 230.103 232.400,229.557 233.300,229.000 234.400 M182.456 234.000 C 182.456 234.330,182.611 234.960,182.800 235.400 C 183.017 235.904,183.144 235.978,183.144 235.600 C 183.144 235.270,182.989 234.640,182.800 234.200 C 182.583 233.696,182.456 233.622,182.456 234.000 M183.212 237.200 C 183.212 237.530,183.387 238.070,183.600 238.400 C 183.945 238.933,183.988 238.933,183.988 238.400 C 183.988 238.070,183.813 237.530,183.600 237.200 C 183.255 236.667,183.212 236.667,183.212 237.200 M226.986 238.100 L 226.352 239.400 227.167 238.400 C 227.952 237.437,228.208 236.800,227.810 236.800 C 227.706 236.800,227.335 237.385,226.986 238.100 M244.600 238.000 C 244.259 238.660,244.069 239.200,244.179 239.200 C 244.289 239.200,244.659 238.660,245.000 238.000 C 245.341 237.340,245.531 236.800,245.421 236.800 C 245.311 236.800,244.941 237.340,244.600 238.000 M224.241 242.500 C 223.074 244.305,222.795 244.913,223.503 244.110 C 224.612 242.854,226.618 239.600,226.284 239.600 C 226.192 239.600,225.273 240.905,224.241 242.500 M242.272 242.619 C 241.332 244.589,241.464 244.924,242.447 243.062 C 242.893 242.216,243.187 241.454,243.101 241.367 C 243.014 241.281,242.641 241.844,242.272 242.619 M316.913 246.400 C 316.902 248.270,317.023 251.600,317.181 253.800 L 317.468 257.800 317.487 254.400 C 317.498 252.530,317.377 249.200,317.219 247.000 L 316.932 243.000 316.913 246.400 M164.326 247.606 C 167.161 250.292,169.833 252.317,171.696 253.192 C 172.492 253.565,172.511 253.555,171.857 253.108 C 168.507 250.815,164.685 247.769,163.468 246.423 C 162.662 245.530,161.867 244.808,161.701 244.817 C 161.535 244.826,162.717 246.081,164.326 247.606 M186.409 245.500 C 186.414 245.665,186.785 246.250,187.233 246.800 L 188.048 247.800 187.414 246.500 C 186.811 245.265,186.389 244.845,186.409 245.500 M218.386 249.900 L 216.200 252.200 218.500 250.014 C 220.637 247.982,220.983 247.600,220.686 247.600 C 220.624 247.600,219.589 248.635,218.386 249.900 M190.800 251.400 C 191.995 252.610,193.063 253.600,193.173 253.600 C 193.283 253.600,192.395 252.610,191.200 251.400 C 190.005 250.190,188.937 249.200,188.827 249.200 C 188.717 249.200,189.605 250.190,190.800 251.400 M213.800 253.461 C 211.191 255.303,211.016 255.537,213.109 254.384 C 214.050 253.866,215.113 253.118,215.471 252.721 C 216.383 251.713,216.094 251.842,213.800 253.461 M227.400 255.584 C 226.864 255.803,227.346 255.893,228.857 255.856 C 230.099 255.825,231.033 255.665,230.934 255.500 C 230.698 255.110,228.427 255.164,227.400 255.584 M237.000 256.000 C 236.850 256.473,236.817 256.950,236.927 257.060 C 237.037 257.170,237.250 256.873,237.400 256.400 C 237.550 255.927,237.583 255.450,237.473 255.340 C 237.363 255.230,237.150 255.527,237.000 256.000 M199.000 256.400 C 199.440 256.589,200.160 256.738,200.600 256.732 C 201.243 256.723,201.204 256.657,200.400 256.400 C 199.032 255.962,197.981 255.962,199.000 256.400 M207.200 256.400 C 206.376 256.664,206.341 256.726,207.000 256.754 C 207.440 256.773,208.070 256.613,208.400 256.400 C 209.101 255.947,208.614 255.947,207.200 256.400 M223.800 256.400 C 223.296 256.617,223.222 256.744,223.600 256.744 C 223.930 256.744,224.560 256.589,225.000 256.400 C 225.504 256.183,225.578 256.056,225.200 256.056 C 224.870 256.056,224.240 256.211,223.800 256.400 M232.722 258.020 C 234.024 260.652,236.786 260.638,236.771 258.000 C 236.769 257.670,236.499 257.895,236.171 258.500 C 235.306 260.094,234.176 259.913,233.214 258.027 C 232.773 257.162,232.261 256.361,232.077 256.248 C 231.893 256.134,232.183 256.932,232.722 258.020 M220.200 257.200 L 219.400 257.544 220.200 257.566 C 220.640 257.578,221.270 257.413,221.600 257.200 C 222.395 256.686,221.396 256.686,220.200 257.200 M183.400 258.000 C 183.840 258.189,184.470 258.344,184.800 258.344 C 185.178 258.344,185.104 258.217,184.600 258.000 C 184.160 257.811,183.530 257.656,183.200 257.656 C 182.822 257.656,182.896 257.783,183.400 258.000 M216.600 258.000 L 215.800 258.344 216.600 258.344 C 217.040 258.344,217.760 258.189,218.200 258.000 L 219.000 257.656 218.200 257.656 C 217.760 257.656,217.040 257.811,216.600 258.000 M187.000 258.800 C 187.440 258.989,188.160 259.144,188.600 259.144 L 189.400 259.144 188.600 258.800 C 188.160 258.611,187.440 258.456,187.000 258.456 L 186.200 258.456 187.000 258.800 M212.400 258.800 L 211.400 259.120 212.400 259.120 C 212.950 259.120,213.850 258.976,214.400 258.800 L 215.400 258.480 214.400 258.480 C 213.850 258.480,212.950 258.624,212.400 258.800 M314.785 259.320 C 315.399 260.130,317.277 260.108,317.439 259.290 C 317.495 259.010,317.449 258.964,317.337 259.190 C 317.054 259.759,315.476 259.704,314.799 259.100 C 314.320 258.673,314.318 258.705,314.785 259.320 M192.600 259.622 C 194.165 259.947,200.296 260.141,199.967 259.856 C 199.875 259.776,197.820 259.617,195.400 259.501 C 192.584 259.366,191.576 259.409,192.600 259.622 M204.000 259.600 L 201.000 259.856 203.800 259.898 C 205.340 259.922,207.410 259.797,208.400 259.620 L 210.200 259.300 208.600 259.322 C 207.720 259.334,205.650 259.459,204.000 259.600 M79.000 325.600 C 107.599 354.200,131.089 377.600,131.199 377.600 C 131.309 377.600,107.999 354.200,79.400 325.600 C 50.801 297.000,27.311 273.600,27.201 273.600 C 27.091 273.600,50.401 297.000,79.000 325.600 M331.997 327.400 C 303.065 356.330,279.485 380.000,279.597 380.000 C 279.709 380.000,303.471 356.330,332.400 327.400 C 361.329 298.470,384.909 274.800,384.799 274.800 C 384.690 274.801,360.929 298.471,331.997 327.400 M66.200 333.200 C 96.339 363.340,121.089 388.000,121.199 388.000 C 121.309 388.000,96.739 363.340,66.600 333.200 C 36.461 303.060,11.711 278.400,11.601 278.400 C 11.491 278.400,36.061 303.060,66.200 333.200 M333.399 333.300 L 278.600 388.200 333.500 333.401 C 363.695 303.261,388.400 278.556,388.400 278.501 C 388.400 278.221,384.347 282.259,333.399 333.300 M60.000 339.800 C 91.789 371.590,117.889 397.600,117.999 397.600 C 118.109 397.600,92.189 371.590,60.400 339.800 C 28.611 308.010,2.511 282.000,2.401 282.000 C 2.291 282.000,28.211 308.010,60.000 339.800 M339.599 339.900 L 281.800 397.800 339.700 340.001 C 371.545 308.211,397.600 282.156,397.600 282.101 C 397.600 281.821,393.336 286.070,339.599 339.900 M168.332 377.900 C 188.644 377.957,221.764 377.957,241.932 377.900 C 262.099 377.843,245.480 377.796,205.000 377.796 C 164.520 377.796,148.019 377.843,168.332 377.900 " stroke="none" fill="#9fbcdf" fill-rule="evenodd"></path><path id="path4" d="M58.184 58.416 C 26.073 90.527,-0.064 116.800,0.101 116.800 C 0.494 116.800,116.913 0.380,116.717 0.183 C 116.634 0.101,90.294 26.305,58.184 58.416 M283.200 0.101 C 283.200 0.494,399.620 116.913,399.817 116.717 C 399.899 116.634,373.695 90.294,341.584 58.184 C 309.473 26.073,283.200 -0.064,283.200 0.101 M60.299 60.301 L 2.400 118.201 2.400 200.001 L 2.400 281.801 60.301 339.701 L 118.201 397.600 200.001 397.600 L 281.801 397.600 339.701 339.699 L 397.600 281.799 397.600 199.999 L 397.600 118.199 339.699 60.299 L 281.799 2.400 199.999 2.400 L 118.199 2.400 60.299 60.301 M339.499 60.499 L 397.200 118.199 397.200 199.999 L 397.200 281.799 339.501 339.499 L 281.801 397.200 200.001 397.200 L 118.201 397.200 60.501 339.501 L 2.800 281.801 2.800 200.001 L 2.800 118.201 60.499 60.501 L 118.199 2.800 199.999 2.800 L 281.799 2.800 339.499 60.499 M160.900 11.100 C 182.405 11.157,217.595 11.157,239.100 11.100 C 260.605 11.043,243.010 10.996,200.000 10.996 C 156.990 10.996,139.395 11.043,160.900 11.100 M66.098 66.503 L 10.800 121.807 10.898 199.803 L 10.996 277.800 11.198 199.701 L 11.400 121.601 66.599 66.401 C 96.959 36.040,121.708 11.200,121.597 11.200 C 121.487 11.200,96.512 36.087,66.098 66.503 M333.600 66.500 L 388.600 121.601 388.802 199.701 L 389.004 277.800 389.102 199.803 L 389.200 121.806 333.900 66.602 L 278.600 11.398 333.600 66.500 M68.100 68.233 L 13.600 122.799 13.600 200.000 L 13.600 277.201 68.200 331.800 L 122.799 386.400 200.000 386.400 L 277.201 386.400 331.800 331.800 L 386.400 277.201 386.400 200.000 L 386.400 122.799 331.800 68.200 L 277.201 13.600 199.900 13.633 L 122.600 13.666 68.100 68.233 M331.499 68.499 L 386.000 122.999 386.000 199.999 L 386.000 276.999 331.501 331.499 L 277.001 386.000 200.001 386.000 L 123.001 386.000 68.501 331.501 L 14.000 277.001 14.000 200.001 L 14.000 123.001 68.499 68.501 L 122.999 14.000 199.999 14.000 L 276.999 14.000 331.499 68.499 M77.498 72.304 L 24.800 125.007 24.898 200.004 L 24.996 275.000 25.198 199.901 L 25.400 124.801 77.799 72.401 L 130.199 20.000 205.000 20.000 L 279.801 20.000 332.301 72.501 L 384.800 125.001 384.800 200.000 L 384.800 274.999 332.300 327.599 L 279.800 380.200 332.500 327.601 L 385.200 275.001 385.200 200.000 L 385.200 124.999 332.499 72.299 L 279.799 19.600 204.997 19.600 L 130.196 19.600 77.498 72.304 M79.299 74.501 L 27.200 126.601 27.200 200.001 L 27.200 273.401 79.301 325.501 L 131.401 377.600 205.001 377.600 L 278.601 377.600 330.501 325.699 C 359.045 297.154,382.400 273.707,382.400 273.596 C 382.400 273.484,359.046 296.749,330.502 325.296 L 278.604 377.200 205.002 377.200 L 131.399 377.200 79.499 325.299 L 27.600 273.399 27.600 199.999 L 27.600 126.599 79.501 74.699 L 131.401 22.800 205.003 22.800 L 278.604 22.800 330.502 74.704 C 359.046 103.251,382.400 126.515,382.400 126.403 C 382.400 126.291,359.045 102.844,330.499 74.299 L 278.599 22.400 204.999 22.400 L 131.399 22.400 79.299 74.501 M169.932 29.900 C 189.364 29.957,221.044 29.957,240.332 29.900 C 259.619 29.843,243.720 29.796,205.000 29.796 C 166.280 29.796,150.499 29.843,169.932 29.900 M325.000 79.600 C 352.279 106.880,374.689 129.200,374.799 129.200 C 374.909 129.200,352.679 106.880,325.400 79.600 C 298.121 52.320,275.711 30.000,275.601 30.000 C 275.491 30.000,297.721 52.320,325.000 79.600 M126.120 41.689 C 120.994 46.798,116.800 51.077,116.800 51.198 C 116.800 51.320,120.990 47.229,126.112 42.107 L 135.423 32.796 205.074 32.898 C 243.381 32.954,274.640 32.865,274.538 32.700 C 274.436 32.535,243.097 32.400,204.896 32.400 L 135.439 32.400 126.120 41.689 M337.400 96.000 C 356.539 115.140,372.288 130.800,372.398 130.800 C 372.508 130.800,356.939 115.140,337.800 96.000 C 318.661 76.860,302.912 61.200,302.802 61.200 C 302.692 61.200,318.261 76.860,337.400 96.000 M90.263 79.898 C 90.160 80.064,107.056 80.153,127.808 80.096 C 163.531 79.997,165.551 80.029,165.747 80.696 C 165.910 81.250,165.936 81.229,165.872 80.600 C 165.786 79.769,90.773 79.073,90.263 79.898 M89.654 81.467 C 89.584 82.594,89.978 83.600,90.492 83.600 C 90.764 83.600,90.763 83.435,90.487 83.100 C 90.261 82.825,89.994 82.150,89.893 81.600 C 89.733 80.729,89.702 80.712,89.654 81.467 M166.114 84.200 C 166.117 85.300,166.195 85.703,166.287 85.095 C 166.379 84.486,166.377 83.586,166.282 83.095 C 166.187 82.603,166.111 83.100,166.114 84.200 M127.395 105.700 L 127.400 127.800 131.000 127.826 L 134.600 127.853 131.103 127.711 L 127.607 127.569 127.498 105.584 L 127.390 83.600 127.395 105.700 M134.105 83.887 C 134.714 83.979,135.614 83.977,136.105 83.882 C 136.597 83.787,136.100 83.711,135.000 83.714 C 133.900 83.717,133.497 83.795,134.105 83.887 M60.899 107.301 L 37.600 130.603 37.600 200.003 L 37.600 269.403 61.100 292.801 L 84.600 316.200 61.300 292.799 L 38.000 269.397 38.000 200.000 L 38.000 130.603 61.299 107.301 C 74.113 94.486,84.507 84.000,84.397 84.000 C 84.287 84.000,73.713 94.486,60.899 107.301 M138.300 84.282 C 138.795 84.378,139.605 84.378,140.100 84.282 C 140.595 84.187,140.190 84.109,139.200 84.109 C 138.210 84.109,137.805 84.187,138.300 84.282 M148.800 87.435 C 149.790 87.998,151.045 88.851,151.588 89.330 C 152.371 90.019,152.454 90.040,151.988 89.432 C 151.320 88.558,148.060 86.398,147.422 86.405 C 147.190 86.407,147.810 86.871,148.800 87.435 M166.551 92.400 C 166.551 94.930,166.616 95.965,166.696 94.700 C 166.775 93.435,166.775 91.365,166.696 90.100 C 166.616 88.835,166.551 89.870,166.551 92.400 M155.008 92.900 C 155.867 93.945,156.634 94.800,156.712 94.800 C 156.998 94.800,155.261 92.578,154.366 91.800 C 153.860 91.360,154.149 91.855,155.008 92.900 M157.949 97.000 C 158.165 97.440,158.634 98.160,158.993 98.600 L 159.644 99.400 159.251 98.600 C 159.035 98.160,158.566 97.440,158.207 97.000 L 157.556 96.200 157.949 97.000 M166.914 100.200 C 166.917 101.300,166.995 101.703,167.087 101.095 C 167.179 100.486,167.177 99.586,167.082 99.095 C 166.987 98.603,166.911 99.100,166.914 100.200 M48.816 115.384 C 41.017 123.186,34.717 129.621,34.818 129.684 C 34.918 129.748,41.387 123.365,49.194 115.500 C 57.000 107.635,63.299 101.200,63.192 101.200 C 63.084 101.200,56.615 107.583,48.816 115.384 M167.274 106.276 L 167.200 108.752 165.700 108.909 L 164.200 109.066 165.713 109.133 C 167.513 109.213,167.699 108.882,167.497 105.952 L 167.348 103.800 167.274 106.276 M152.398 130.800 L 152.200 151.800 150.738 151.800 C 149.933 151.800,149.359 151.935,149.461 152.100 C 149.777 152.609,151.876 152.431,152.355 151.855 C 152.682 151.461,152.778 145.551,152.702 130.555 L 152.596 109.800 152.398 130.800 M148.229 113.229 C 147.858 114.361,147.627 115.360,147.715 115.449 C 147.803 115.537,148.176 114.679,148.543 113.543 C 148.910 112.407,149.141 111.408,149.056 111.323 C 148.972 111.238,148.599 112.096,148.229 113.229 M143.580 122.026 C 142.871 122.920,141.374 124.270,140.251 125.026 C 139.129 125.782,138.388 126.396,138.605 126.390 C 139.699 126.363,146.131 120.400,145.067 120.400 C 144.957 120.400,144.288 121.132,143.580 122.026 M375.396 200.200 C 375.396 238.480,375.443 254.081,375.500 234.868 C 375.557 215.656,375.557 184.336,375.500 165.268 C 375.443 146.201,375.396 161.920,375.396 200.200 M127.384 132.500 C 127.278 132.775,127.239 143.170,127.296 155.600 L 127.400 178.200 131.000 178.222 L 134.600 178.245 131.100 178.107 L 127.600 177.970 127.600 155.203 L 127.600 132.435 130.500 132.297 L 133.400 132.159 130.487 132.079 C 128.464 132.024,127.516 132.153,127.384 132.500 M142.000 136.600 C 142.746 137.370,143.447 138.000,143.557 138.000 C 143.667 138.000,143.146 137.370,142.400 136.600 C 141.654 135.830,140.953 135.200,140.843 135.200 C 140.733 135.200,141.254 135.830,142.000 136.600 M146.033 142.432 C 146.015 142.560,146.442 143.730,146.983 145.032 C 147.524 146.334,147.963 147.130,147.959 146.800 C 147.951 146.201,146.096 141.993,146.033 142.432 M171.320 152.400 C 171.320 153.610,171.395 154.105,171.487 153.500 C 171.578 152.895,171.578 151.905,171.487 151.300 C 171.395 150.695,171.320 151.190,171.320 152.400 M197.900 155.097 C 199.495 155.173,202.105 155.173,203.700 155.097 C 205.295 155.021,203.990 154.959,200.800 154.959 C 197.610 154.959,196.305 155.021,197.900 155.097 M189.905 155.883 C 190.402 155.979,191.122 155.975,191.505 155.875 C 191.887 155.775,191.480 155.696,190.600 155.701 C 189.720 155.705,189.407 155.787,189.905 155.883 M210.705 155.883 C 211.202 155.979,211.922 155.975,212.305 155.875 C 212.687 155.775,212.280 155.696,211.400 155.701 C 210.520 155.705,210.207 155.787,210.705 155.883 M163.896 158.935 C 163.069 160.511,162.678 161.440,163.028 161.000 C 163.802 160.026,165.703 156.370,165.527 156.195 C 165.457 156.126,164.723 157.359,163.896 158.935 M231.378 157.282 L 230.600 158.200 231.431 157.500 C 232.729 156.408,233.524 156.615,233.727 158.100 L 233.904 159.400 233.852 158.000 C 233.787 156.253,232.554 155.895,231.378 157.282 M183.600 157.200 C 182.776 157.464,182.741 157.526,183.400 157.554 C 183.840 157.573,184.470 157.413,184.800 157.200 C 185.501 156.747,185.014 156.747,183.600 157.200 M170.931 159.800 C 170.933 161.340,171.005 161.921,171.092 161.091 C 171.179 160.261,171.177 159.001,171.089 158.291 C 171.000 157.581,170.929 158.260,170.931 159.800 M178.600 158.991 C 175.953 160.238,176.454 160.253,179.432 159.017 C 180.734 158.476,181.530 158.037,181.200 158.041 C 180.870 158.046,179.700 158.473,178.600 158.991 M201.300 158.691 C 202.125 158.778,203.475 158.778,204.300 158.691 C 205.125 158.605,204.450 158.534,202.800 158.534 C 201.150 158.534,200.475 158.605,201.300 158.691 M209.000 159.812 C 211.004 160.534,211.278 160.530,210.000 159.800 C 209.450 159.486,208.640 159.230,208.200 159.232 C 207.760 159.234,208.120 159.495,209.000 159.812 M174.100 161.212 C 172.945 161.874,172.000 162.510,172.000 162.625 C 172.000 162.843,175.521 160.914,176.180 160.334 C 176.881 159.718,176.215 159.999,174.100 161.212 M234.131 163.800 C 234.133 165.340,234.205 165.921,234.292 165.091 C 234.379 164.261,234.377 163.001,234.289 162.291 C 234.200 161.581,234.129 162.260,234.131 163.800 M213.200 161.711 C 213.200 161.787,213.785 162.278,214.500 162.801 C 215.304 163.390,215.584 163.487,215.233 163.055 C 214.700 162.399,213.200 161.407,213.200 161.711 M158.378 166.700 L 157.000 168.200 158.500 166.822 C 159.896 165.538,160.184 165.200,159.878 165.200 C 159.812 165.200,159.137 165.875,158.378 166.700 M188.093 166.300 C 187.057 167.796,186.721 168.400,186.923 168.400 C 187.017 168.400,187.570 167.680,188.153 166.800 C 189.336 165.012,189.284 164.579,188.093 166.300 M219.983 168.300 C 220.726 169.235,221.406 170.000,221.494 170.000 C 221.777 170.000,220.063 167.749,219.335 167.164 C 218.948 166.854,219.240 167.365,219.983 168.300 M154.600 170.276 C 153.500 171.287,153.140 171.747,153.800 171.297 C 154.924 170.530,157.144 168.378,156.770 168.418 C 156.676 168.428,155.700 169.264,154.600 170.276 M234.561 175.200 C 234.561 178.610,234.622 180.005,234.697 178.300 C 234.772 176.595,234.772 173.805,234.697 172.100 C 234.622 170.395,234.561 171.790,234.561 175.200 M184.491 173.300 C 183.810 175.184,183.904 175.694,184.626 174.030 C 184.953 173.277,185.166 172.499,185.101 172.302 C 185.035 172.105,184.760 172.554,184.491 173.300 M149.800 173.600 C 149.140 174.037,148.780 174.392,149.000 174.388 C 149.401 174.382,151.576 172.823,151.200 172.812 C 151.090 172.808,150.460 173.163,149.800 173.600 M143.600 176.225 C 142.830 176.516,142.494 176.765,142.854 176.777 C 143.214 176.790,144.114 176.537,144.854 176.216 C 146.520 175.492,145.516 175.500,143.600 176.225 M138.900 177.476 C 139.285 177.576,139.915 177.576,140.300 177.476 C 140.685 177.375,140.370 177.293,139.600 177.293 C 138.830 177.293,138.515 177.375,138.900 177.476 M90.080 178.480 C 89.436 179.124,89.470 180.994,90.135 181.546 C 90.751 182.057,155.600 182.410,155.600 181.902 C 155.600 181.739,140.885 181.559,122.900 181.502 L 90.200 181.400 90.200 180.000 L 90.200 178.600 94.200 178.377 L 98.200 178.155 94.380 178.077 C 91.847 178.026,90.398 178.162,90.080 178.480 M234.796 185.682 C 234.688 187.377,234.744 188.619,234.920 188.442 C 235.095 188.265,235.184 186.879,235.116 185.360 L 234.992 182.600 234.796 185.682 M181.709 186.000 C 181.709 186.990,181.787 187.395,181.882 186.900 C 181.978 186.405,181.978 185.595,181.882 185.100 C 181.787 184.605,181.709 185.010,181.709 186.000 M180.982 207.000 C 180.982 215.580,181.035 219.033,181.100 214.674 C 181.164 210.314,181.164 203.294,181.099 199.074 C 181.035 194.853,180.982 198.420,180.982 207.000 M151.693 194.400 C 151.693 195.170,151.775 195.485,151.876 195.100 C 151.976 194.715,151.976 194.085,151.876 193.700 C 151.775 193.315,151.693 193.630,151.693 194.400 M150.924 200.600 C 150.926 201.920,151.001 202.412,151.090 201.693 C 151.179 200.974,151.177 199.894,151.086 199.293 C 150.995 198.692,150.922 199.280,150.924 200.600 M150.551 208.400 C 150.551 210.930,150.616 211.965,150.696 210.700 C 150.775 209.435,150.775 207.365,150.696 206.100 C 150.616 204.835,150.551 205.870,150.551 208.400 M150.924 217.000 C 150.926 218.320,151.001 218.812,151.090 218.093 C 151.179 217.374,151.177 216.294,151.086 215.693 C 150.995 215.092,150.922 215.680,150.924 217.000 M151.693 222.800 C 151.693 223.570,151.775 223.885,151.876 223.500 C 151.976 223.115,151.976 222.485,151.876 222.100 C 151.775 221.715,151.693 222.030,151.693 222.800 M249.600 224.694 C 287.964 224.969,316.306 224.972,316.138 224.700 C 316.036 224.535,297.738 224.443,275.476 224.495 C 253.214 224.547,241.570 224.637,249.600 224.694 M316.520 227.600 C 316.520 228.810,316.595 229.305,316.687 228.700 C 316.778 228.095,316.778 227.105,316.687 226.500 C 316.595 225.895,316.520 226.390,316.520 227.600 M181.709 227.600 C 181.709 228.590,181.787 228.995,181.882 228.500 C 181.978 228.005,181.978 227.195,181.882 226.700 C 181.787 226.205,181.709 226.610,181.709 227.600 M153.044 229.000 C 153.373 230.471,153.602 230.790,153.594 229.767 C 153.591 229.345,153.405 228.730,153.182 228.400 C 152.885 227.962,152.848 228.124,153.044 229.000 M258.700 228.282 C 259.195 228.378,260.005 228.378,260.500 228.282 C 260.995 228.187,260.590 228.109,259.600 228.109 C 258.610 228.109,258.205 228.187,258.700 228.282 M289.467 228.267 C 289.320 228.413,289.200 248.748,289.200 273.456 L 289.200 318.378 294.900 318.489 L 300.600 318.600 300.724 320.106 L 300.849 321.612 275.444 321.506 C 261.472 321.448,250.176 321.536,250.343 321.703 C 250.510 321.870,261.976 321.960,275.823 321.903 L 301.000 321.800 301.127 320.474 C 301.348 318.175,300.910 318.000,294.951 318.000 L 289.600 318.000 289.600 273.223 L 289.600 228.446 291.300 228.293 L 293.000 228.140 291.367 228.070 C 290.468 228.031,289.613 228.120,289.467 228.267 M253.600 229.400 C 252.322 230.130,252.596 230.134,254.600 229.412 C 255.480 229.095,255.840 228.834,255.400 228.832 C 254.960 228.830,254.150 229.086,253.600 229.400 M250.527 231.154 C 248.826 232.386,247.052 234.377,245.877 236.373 C 244.711 238.354,245.401 237.780,246.793 235.611 C 248.031 233.681,249.570 232.119,251.609 230.721 C 252.154 230.348,252.492 230.033,252.360 230.021 C 252.228 230.009,251.403 230.519,250.527 231.154 M301.846 232.802 C 302.752 233.791,303.967 235.317,304.546 236.193 C 305.126 237.069,305.600 237.641,305.600 237.465 C 305.600 236.851,303.266 233.791,301.738 232.402 L 300.200 231.004 301.846 232.802 M154.017 231.847 C 153.995 232.428,155.671 236.463,155.857 236.276 C 155.935 236.198,155.557 235.069,155.017 233.767 C 154.476 232.465,154.026 231.601,154.017 231.847 M316.958 237.800 C 316.958 240.880,317.021 242.087,317.097 240.482 C 317.173 238.878,317.173 236.358,317.096 234.882 C 317.019 233.407,316.957 234.720,316.958 237.800 M306.682 240.189 C 307.273 241.393,307.823 242.311,307.905 242.229 C 308.084 242.049,306.067 238.000,305.798 238.000 C 305.694 238.000,306.092 238.985,306.682 240.189 M157.200 238.926 C 157.200 239.666,160.684 244.285,163.095 246.743 L 165.702 249.400 163.246 246.680 C 161.895 245.184,159.982 242.756,158.995 241.284 C 158.008 239.813,157.200 238.751,157.200 238.926 M221.173 246.235 C 220.225 247.464,218.358 249.474,217.025 250.702 C 215.691 251.929,215.161 252.548,215.848 252.077 C 217.213 251.139,220.992 247.177,222.380 245.229 C 223.859 243.151,222.999 243.869,221.173 246.235 M317.328 247.600 C 317.328 249.030,317.401 249.615,317.489 248.900 C 317.578 248.185,317.578 247.015,317.489 246.300 C 317.401 245.585,317.328 246.170,317.328 247.600 M188.279 247.918 C 188.672 248.643,189.527 249.723,190.179 250.318 L 191.364 251.400 190.182 249.991 C 189.532 249.215,188.677 248.135,188.283 247.591 C 187.592 246.637,187.592 246.649,188.279 247.918 M310.816 249.454 C 310.807 249.704,311.063 250.514,311.384 251.254 C 311.706 251.994,311.976 252.396,311.984 252.146 C 311.993 251.896,311.737 251.086,311.416 250.346 C 311.094 249.606,310.824 249.204,310.816 249.454 M238.891 251.700 C 238.210 253.584,238.304 254.094,239.026 252.430 C 239.353 251.677,239.566 250.899,239.501 250.702 C 239.435 250.505,239.160 250.954,238.891 251.700 M192.473 252.626 C 192.843 253.052,193.743 253.741,194.473 254.157 C 196.039 255.050,195.626 254.607,193.400 253.004 C 192.469 252.334,192.082 252.176,192.473 252.626 M317.597 256.082 C 317.489 258.217,317.542 259.820,317.716 259.645 C 317.891 259.470,317.979 257.723,317.914 255.764 L 317.794 252.200 317.597 256.082 M312.416 253.854 C 312.407 254.104,312.663 254.914,312.984 255.654 C 313.306 256.394,313.576 256.796,313.584 256.546 C 313.593 256.296,313.337 255.486,313.016 254.746 C 312.694 254.006,312.424 253.604,312.416 253.854 M209.200 255.441 C 207.770 255.970,207.211 256.292,207.957 256.157 C 209.451 255.886,212.000 254.902,212.000 254.595 C 212.000 254.488,211.955 254.418,211.900 254.440 C 211.845 254.462,210.630 254.912,209.200 255.441 M229.679 255.980 C 230.493 256.138,231.401 256.432,231.698 256.634 C 231.995 256.835,231.894 256.685,231.475 256.300 C 231.052 255.912,230.151 255.621,229.456 255.646 C 228.216 255.691,228.219 255.696,229.679 255.980 M202.291 256.689 C 203.001 256.777,204.261 256.779,205.091 256.692 C 205.921 256.605,205.340 256.533,203.800 256.531 C 202.260 256.529,201.581 256.600,202.291 256.689 M313.600 257.274 C 313.600 257.906,314.528 260.000,314.808 260.000 C 314.990 260.000,314.855 259.415,314.508 258.700 C 313.833 257.309,313.600 256.943,313.600 257.274 M188.700 259.482 C 189.195 259.578,190.005 259.578,190.500 259.482 C 190.995 259.387,190.590 259.309,189.600 259.309 C 188.610 259.309,188.205 259.387,188.700 259.482 M210.705 259.483 C 211.202 259.579,211.922 259.575,212.305 259.475 C 212.687 259.375,212.280 259.296,211.400 259.301 C 210.520 259.305,210.207 259.387,210.705 259.483 M197.318 260.298 C 199.033 260.373,201.733 260.372,203.318 260.297 C 204.903 260.221,203.500 260.159,200.200 260.160 C 196.900 260.161,195.603 260.222,197.318 260.298 M337.399 304.100 L 302.600 339.000 337.500 304.201 C 356.695 285.061,372.400 269.356,372.400 269.301 C 372.400 269.021,369.750 271.656,337.399 304.100 M34.800 270.236 C 34.800 270.438,41.055 276.813,48.700 284.402 L 62.600 298.200 48.800 284.216 C 41.210 276.524,34.955 270.149,34.900 270.049 C 34.845 269.949,34.800 270.033,34.800 270.236 M325.199 320.300 L 275.400 370.200 325.300 320.401 C 371.692 274.103,375.379 270.400,375.099 270.400 C 375.044 270.400,352.589 292.855,325.199 320.300 M77.400 327.600 C 106.219 356.420,129.889 380.000,129.999 380.000 C 130.109 380.000,106.619 356.420,77.800 327.600 C 48.981 298.780,25.311 275.200,25.201 275.200 C 25.091 275.200,48.581 298.780,77.400 327.600 M11.200 278.402 C 11.200 278.513,36.087 303.488,66.503 333.902 L 121.807 389.200 200.000 389.200 L 278.193 389.200 333.497 333.902 C 363.913 303.488,388.800 278.513,388.800 278.402 C 388.800 278.291,363.913 303.085,333.496 333.500 L 278.191 388.800 200.000 388.800 L 121.809 388.800 66.504 333.500 C 36.087 303.085,11.200 278.291,11.200 278.402 M58.184 341.584 C 90.294 373.695,116.634 399.899,116.717 399.817 C 116.913 399.620,0.494 283.200,0.101 283.200 C -0.064 283.200,26.073 309.473,58.184 341.584 M341.266 341.466 C 309.293 373.476,283.201 399.734,283.283 399.817 C 283.366 399.899,309.706 373.695,341.816 341.584 C 373.927 309.473,400.019 283.215,399.799 283.233 C 399.580 283.251,373.240 309.456,341.266 341.466 M253.282 318.296 C 254.758 318.373,257.278 318.373,258.882 318.297 C 260.487 318.221,259.280 318.158,256.200 318.158 C 253.120 318.157,251.807 318.219,253.282 318.296 M116.800 348.802 C 116.800 348.923,120.994 353.202,126.120 358.311 L 135.439 367.600 204.896 367.600 C 243.097 367.600,274.436 367.465,274.538 367.300 C 274.640 367.135,243.381 367.046,205.074 367.102 L 135.423 367.204 126.112 357.893 C 120.990 352.771,116.800 348.680,116.800 348.802 M169.932 370.300 C 189.364 370.357,221.044 370.357,240.332 370.300 C 259.619 370.243,243.720 370.196,205.000 370.196 C 166.280 370.196,150.499 370.243,169.932 370.300 M167.468 380.300 C 187.966 380.357,221.626 380.357,242.268 380.300 C 262.911 380.243,246.140 380.196,205.000 380.196 C 163.860 380.196,146.971 380.243,167.468 380.300 " stroke="none" fill="#bed4ec" fill-rule="evenodd"></path></g></svg>